<?xml version="1.0" encoding="iso-8859-1"?>
<!-- Uploaded to: SVG Repo, www.svgrepo.com, Generator: SVG Repo Mixer Tools -->
<svg height="800px" width="800px" version="1.1" id="Layer_1" xmlns="http://www.w3.org/2000/svg" xmlns:xlink="http://www.w3.org/1999/xlink" 
	 viewBox="0 0 506 506" xml:space="preserve">
<path style="fill:#DF5C4E;" d="M193,215.7c-0.8-0.8-0.8-2,0-2.8s2-0.8,2.8,0l150,150l140-140c9.2-9.2,14.4-21.6,14.4-35.2
	s-5.2-25.6-14.4-35.2l-106-105.6c-9.2-9.2-21.6-14.4-35.2-14.4s-25.6,5.2-35.2,14.4L20.2,335.7C1,355.3,1,386.9,20.2,406.1
	l67.6,67.6h147.6L343,366.1L193,215.7z"/>
<path style="fill:#33A5D2;" d="M193,215.7c-0.8-0.8-0.8-2,0-2.8s2-0.8,2.8,0l150,150l140-140c9.2-9.2,14.4-21.6,14.4-35.2
	s-5.2-25.6-14.4-35.2l-106-105.6c-9.2-9.2-21.6-14.4-35.2-14.4s-25.6,5.2-35.2,14.4L166.6,189.7l176,176L193,215.7z"/>
<path style="fill:#E36D60;" d="M168.2,191.3L11.4,348.5c-6.8,13.2-7.2,29.2-0.8,43.2l179.2-179.2L168.2,191.3z"/>
<path style="fill:#73BADD;" d="M189.4,212.5l176-175.6c-6.4-2.8-13.6-4.4-20.8-4.4c-8,0-15.6,2-22.4,5.6l-154,153.2L189.4,212.5z"/>
<path d="M236.2,479.7H86.6c-1.2,0-2-0.4-2.8-1.2l-67.6-68c-21.6-21.6-21.6-57.2,0-78.8l2.8,2.8l-2.8-2.8L305.4,42.5
	c21.6-21.6,56.8-21.6,78.4,0l106,106c21.6,21.6,21.6,57.2,0,78.8L239,478.5C238.2,479.3,237.4,479.7,236.2,479.7z M88.2,471.7h146.4
	l249.6-250c8.8-8.8,14-20.8,14-33.6c0-12.8-4.8-24.8-14-33.6l-106-106c-18.4-18.4-48.8-18.4-67.2,0L21.8,337.7
	c-18.4,18.4-18.4,49.2,0,67.6L88.2,471.7z"/>
<path d="M365,479.7H89c-2.4,0-4-1.6-4-4s1.6-4,4-4h276c2.4,0,4,1.6,4,4S367.4,479.7,365,479.7z"/>
<path d="M345,368.9c-1.2,0-2-0.4-2.8-1.2L191.4,217.3c-1.6-1.6-1.6-4,0-5.6s4-1.6,5.6,0l150.8,150.4c1.6,1.6,1.6,4,0,5.6
	C347,368.5,346.2,368.9,345,368.9z"/>
<path d="M445,463.7H253c-2.4,0-4-1.6-4-4s1.6-4,4-4h192c2.4,0,4,1.6,4,4S447.4,463.7,445,463.7z"/>
</svg>