<?xml version="1.0" encoding="utf-8"?>
<!-- Uploaded to: SVG Repo, www.svgrepo.com, Generator: SVG Repo Mixer Tools -->
<svg width="800px" height="800px" viewBox="0 0 1024 1024" class="icon"  version="1.1" xmlns="http://www.w3.org/2000/svg"><path d="M0 0.008h1024v1023.984H0z" fill="#F4F4F4" /><path d="M978.84 907.376a69.976 69.976 0 0 1-69.968 69.96h-789.52a69.976 69.976 0 0 1-69.968-69.96V210.408a69.984 69.984 0 0 1 69.968-69.968h789.52a69.984 69.984 0 0 1 69.968 69.968v696.968z" fill="#F4A417" /><path d="M49.384 270.616v636.76a69.976 69.976 0 0 0 69.968 69.96h458.392c76.84-184.088 280.688-706.72 280.688-706.72H49.384z" fill="#F4A417" /><path d="M49.384 305.304V210.408a69.984 69.984 0 0 1 69.968-69.968h789.52a69.984 69.984 0 0 1 69.968 69.968v94.896H49.384z" fill="#E37F19" /><path d="M362.12 281.64a60.208 60.208 0 0 1-60.208-60.2V60.216a60.216 60.216 0 0 1 120.416 0v161.216a60.216 60.216 0 0 1-60.208 60.208zM666.112 281.64a60.232 60.232 0 0 1-60.208-60.2V60.216A60.24 60.24 0 0 1 666.112 0.008c33.28 0 60.2 26.96 60.2 60.208v161.216a60.184 60.184 0 0 1-60.2 60.208z" fill="#E5226B" /><path d="M362.12 0.008a60.216 60.216 0 0 1 60.208 60.208v161.216a60.208 60.208 0 0 1-60.208 60.2M666.112 0.008c33.28 0 60.2 26.96 60.2 60.208v161.216a60.176 60.176 0 0 1-60.2 60.2" fill="#C8246D" /><path d="M782.52 480.928H221.864a30.08 30.08 0 0 1-30.104-30.104 30.08 30.08 0 0 1 30.104-30.104h560.664a30.08 30.08 0 0 1 30.104 30.104 30.096 30.096 0 0 1-30.112 30.104zM507.904 672.832H221.864c-16.64 0-30.104-13.464-30.104-30.104s13.464-30.112 30.104-30.112h286.04c16.64 0 30.104 13.472 30.104 30.112s-13.464 30.104-30.104 30.104z" fill="#D98D1B" /></svg>