<?xml version="1.0" encoding="iso-8859-1"?>
<!-- Uploaded to: SVG Repo, www.svgrepo.com, Generator: SVG Repo Mixer Tools -->
<svg height="800px" width="800px" version="1.1" id="Layer_1" xmlns="http://www.w3.org/2000/svg" xmlns:xlink="http://www.w3.org/1999/xlink" 
	 viewBox="0 0 392.663 392.663" xml:space="preserve">
<path style="fill:#FFC10D;" d="M227.426,223.846V107.547c0-6.012,4.848-10.925,10.925-10.925h28.574l-70.594-70.529l-70.529,70.529
	h28.574c6.012,0,10.925,4.848,10.925,10.925v116.299L227.426,223.846L227.426,223.846z"/>
<path style="fill:#56ACE0;" d="M348.962,223.006v92.962h0.065c0,18.036-14.675,32.711-32.711,32.711H76.412
	c-18.036,0-32.711-14.675-32.711-32.711v-92.962H21.851v114.812c0,18.036,14.675,32.711,32.711,32.711h283.539
	c18.036,0,32.711-14.675,32.711-32.711V223.006H348.962z"/>
<g>
	<path style="fill:#194F82;" d="M99.426,118.602h44.024v116.299c0,6.012,4.848,10.925,10.925,10.925h83.911
		c6.012,0,10.925-4.848,10.925-10.925V118.602h44.024h0.065c10.925,0.065,14.545-12.994,6.723-19.459l-95.935-96
		c-4.073-4.073-11.378-4.073-15.451,0l-96.905,96.905C85.657,105.479,88.63,118.343,99.426,118.602z M196.331,26.222l70.529,70.529
		h-28.574c-6.012,0-10.925,4.848-10.925,10.925v116.299h-62.125V107.677c0-6.012-4.848-10.925-10.925-10.925h-28.574L196.331,26.222
		z"/>
	<path style="fill:#194F82;" d="M381.737,201.349h-43.572c-6.012,0-10.925,4.848-10.925,10.925v103.952
		c0,6.012-4.848,10.925-10.925,10.925H76.412c-6.012,0-10.925-4.848-10.925-10.925v-12.994H94.19
		c6.012,0,10.925-4.848,10.925-10.925c0-6.012-4.848-10.925-10.925-10.925H65.552v-21.786h50.489
		c6.012,0,10.925-4.848,10.925-10.925c0-6.012-4.848-10.925-10.925-10.925H65.552v-25.471c0-6.012-4.848-10.925-10.925-10.925
		H10.925C4.913,201.349,0,206.198,0,212.275v125.737c0,30.061,24.501,54.562,54.562,54.562h283.539
		c30.061,0,54.562-24.501,54.562-54.562V212.21C392.598,206.198,387.749,201.349,381.737,201.349z M370.812,337.947
		c0,18.036-14.675,32.711-32.711,32.711H54.626c-18.036,0-32.711-14.675-32.711-32.711V223.135h21.786v93.026
		c0,18.036,14.675,32.711,32.711,32.711h239.838c18.036,0,32.711-14.675,32.711-32.711v-93.026h21.786v114.812H370.812z"/>
</g>
</svg>